<?xml version="1.0" encoding="utf-8"?>
<!-- Generator: Adobe Illustrator 25.0.0, SVG Export Plug-In . SVG Version: 6.00 Build 0)  -->
<svg version="1.1" id="Слой_1" xmlns="http://www.w3.org/2000/svg" xmlns:xlink="http://www.w3.org/1999/xlink" x="0px" y="0px"
	 viewBox="0 0 32 32" style="enable-background:new 0 0 32 32;" xml:space="preserve">
<style type="text/css">
	.st0{fill:#7D410D;}
	.st1{fill:#F4F760;}
</style>
<g id="OC_2">
	<g>
		<path class="st0" d="M4,31.5c-1.9,0-3.5-1.6-3.5-3.5V4c0-1.9,1.6-3.5,3.5-3.5h24c1.9,0,3.5,1.6,3.5,3.5v24c0,1.9-1.6,3.5-3.5,3.5
			H4z"/>
		<path class="st1" d="M28,1c1.7,0,3,1.3,3,3v24c0,1.7-1.3,3-3,3H4c-1.7,0-3-1.3-3-3V4c0-1.7,1.3-3,3-3H28 M28,0H4C1.8,0,0,1.8,0,4
			v24c0,2.2,1.8,4,4,4h24c2.2,0,4-1.8,4-4V4C32,1.8,30.2,0,28,0L28,0z"/>
	</g>
	<path class="st1" d="M6.3,7.9h3.3c0.1,0,0.3,0.1,0.3,0.3c0.4,1.4,1.9,6.9,3.3,7.4c1,0,0.7-7.3-0.7-7.3c-0.3,0,0.6-0.9,0.7-0.9
		c1.2-0.5,2.5-0.5,3.8,0c0.7,0.4,0.8,1.6,0.8,2.5c0,1-0.7,5.1,0.3,5.6c1.3,0.6,3-5.4,3.4-6.9c0.1-0.2,0.2-0.3,0.3-0.3h3.7
		c0.2,0,0.3,0.2,0.3,0.5c0,0.1,0,0.1,0,0.2c-0.8,2.6-1.7,5.1-2.7,7.4c-0.2,0.4-0.2,0.9,0.1,1.3c1.1,1.8,4.2,6.7,2.4,6.7h-3.8
		c-0.2,0-0.4-0.1-0.5-0.3c-0.6-0.9-2.3-3.6-3-3.4c-0.6,0.2-0.7,1.8-0.7,2.8c0,0.6-0.3,1-0.6,1.1c-0.7,0.1-1.6,0.1-1.7,0.1
		c-2.7-0.3-4.2-2.9-5.7-5.8C8,15.6,6.8,12.2,5.9,8.5C5.9,8.3,6,8,6.2,7.9C6.2,7.9,6.2,7.9,6.3,7.9z"/>
</g>
</svg>
